<svg xmlns="http://www.w3.org/2000/svg" version="1.1" xmlns:xlink="http://www.w3.org/1999/xlink" xmlns:svgjs="http://svgjs.com/svgjs" width="1000" height="1000"><rect width="1000" height="1000" rx="200" ry="200" fill="#5d67de"></rect><g transform="matrix(2.21606648199446,0,0,2.21606648199446,100,100)"><svg xmlns="http://www.w3.org/2000/svg" version="1.1" xmlns:xlink="http://www.w3.org/1999/xlink" xmlns:svgjs="http://svgjs.com/svgjs" width="361" height="361"><svg xmlns="http://www.w3.org/2000/svg" xmlns:xlink="http://www.w3.org/1999/xlink" version="1.1" style="shape-rendering:geometricPrecision; text-rendering:geometricPrecision; image-rendering:optimizeQuality; fill-rule:evenodd; clip-rule:evenodd" viewBox="-0.5 -0.5 361 361">
<g><path style="opacity:0.967" fill="#060606" d="M 161.5,-0.5 C 173.833,-0.5 186.167,-0.5 198.5,-0.5C 259.019,7.53688 305.186,37.5369 337,89.5C 349.585,112.085 357.418,136.085 360.5,161.5C 360.5,173.833 360.5,186.167 360.5,198.5C 352.463,259.019 322.463,305.186 270.5,337C 247.915,349.585 223.915,357.418 198.5,360.5C 186.167,360.5 173.833,360.5 161.5,360.5C 100.981,352.463 54.8142,322.463 23,270.5C 10.4154,247.915 2.58207,223.915 -0.5,198.5C -0.5,186.167 -0.5,173.833 -0.5,161.5C 7.53688,100.981 37.5369,54.8142 89.5,23C 112.085,10.4154 136.085,2.58207 161.5,-0.5 Z"></path></g>
<g><path style="opacity:1" fill="#f2f2f2" d="M 349.5,154.5 C 349.527,160.051 350.194,165.384 351.5,170.5C 353.642,233.377 329.642,283.543 279.5,321C 246.661,343.406 210.328,353.572 170.5,351.5C 165.384,350.194 160.051,349.527 154.5,349.5C 100.285,339.769 59.4512,311.102 32,263.5C 10.2347,221.765 5.56802,178.099 18,132.5C 37.5,75.6667 75.6667,37.5 132.5,18C 192.3,2.6228 245.967,14.2895 293.5,53C 324.281,80.0558 342.948,113.889 349.5,154.5 Z"></path></g>
<g><path style="opacity:1" fill="#020202" d="M 168.5,19.5 C 236.396,17.5196 287.896,45.1862 323,102.5C 351.679,159.599 349.679,215.599 317,270.5C 285.534,315.565 242.201,339.898 187,343.5C 186.167,342.667 185.333,341.833 184.5,341C 185.488,335.039 185.488,328.872 184.5,322.5C 174.5,322.5 164.5,322.5 154.5,322.5C 154.771,324.821 154.104,326.821 152.5,328.5C 153.833,332.167 153.833,335.833 152.5,339.5C 139.262,338.595 126.595,335.095 114.5,329C 53.0283,297.781 21.3617,247.447 19.5,178C 24.3538,107.599 59.0205,58.2652 123.5,30C 138.316,25.0436 153.316,21.5436 168.5,19.5 Z"></path></g>
<g><path style="opacity:1" fill="#f6f6f6" d="M 257.5,169.5 C 256.061,186.348 254.728,203.348 253.5,220.5C 253.093,230.918 251.926,241.252 250,251.5C 246.232,261.6 239.066,267.767 228.5,270C 215.341,272.947 202.007,274.114 188.5,273.5C 188.692,283.246 188.025,292.912 186.5,302.5C 186.5,304.167 186.5,305.833 186.5,307.5C 175.167,307.5 163.833,307.5 152.5,307.5C 153.034,302.099 151.867,297.099 149,292.5C 148.5,284.507 148.334,276.507 148.5,268.5C 115.661,264.99 102.328,246.99 108.5,214.5C 107.5,214.5 106.5,214.5 105.5,214.5C 105.552,216.903 105.219,219.236 104.5,221.5C 103.521,218.375 103.187,215.042 103.5,211.5C 104.219,209.112 105.885,207.612 108.5,207C 114.99,204.447 121.657,202.613 128.5,201.5C 128.785,199.712 128.452,198.045 127.5,196.5C 120.061,198.526 112.728,200.859 105.5,203.5C 104.167,200.833 104.167,198.167 105.5,195.5C 113.314,192.229 121.314,189.562 129.5,187.5C 129.807,185.554 129.807,183.887 129.5,182.5C 122.01,184.442 114.676,186.775 107.5,189.5C 106.539,187.735 106.205,185.735 106.5,183.5C 114.075,179.557 122.075,176.39 130.5,174C 131.38,172.644 131.714,171.144 131.5,169.5C 123.336,171.167 115.503,173.833 108,177.5C 106.877,174.044 107.71,171.21 110.5,169C 117.38,165.873 124.38,163.04 131.5,160.5C 132.429,159.311 132.762,157.978 132.5,156.5C 124.435,157.966 116.769,160.633 109.5,164.5C 108.353,162.235 108.186,159.902 109,157.5C 117.084,153.083 125.584,149.75 134.5,147.5C 134.785,145.712 134.452,144.045 133.5,142.5C 125.918,145.46 118.251,148.127 110.5,150.5C 109.959,147.348 110.959,144.848 113.5,143C 120.673,139.666 128.006,136.833 135.5,134.5C 135.785,132.712 135.452,131.045 134.5,129.5C 127.006,132.109 119.672,135.109 112.5,138.5C 111.23,136.243 111.564,134.243 113.5,132.5C 114.962,131.542 116.295,130.376 117.5,129C 123.738,126.629 129.905,124.129 136,121.5C 136.667,119.833 136.667,118.167 136,116.5C 128.891,119.593 121.724,122.593 114.5,125.5C 113.386,124.277 113.219,122.944 114,121.5C 120.821,114.672 128.987,110.339 138.5,108.5C 138.5,106.833 138.5,105.167 138.5,103.5C 130.235,106.253 122.235,109.587 114.5,113.5C 113.973,98.9017 119.14,86.9017 130,77.5C 128.849,83.1113 127.515,88.778 126,94.5C 125.333,96.5 125.333,98.5 126,100.5C 127,101.833 128,101.833 129,100.5C 129.637,91.2844 132.137,82.6178 136.5,74.5C 137.96,72.5776 139.627,71.9109 141.5,72.5C 138.242,79.864 136.409,87.5306 136,95.5C 136.718,96.4506 137.551,96.6172 138.5,96C 139.639,86.7472 142.305,77.9139 146.5,69.5C 148.316,67.5586 150.316,66.8919 152.5,67.5C 148.768,75.4268 146.768,83.7601 146.5,92.5C 147.5,92.5 148.5,92.5 149.5,92.5C 149.757,81.5614 153.09,71.7281 159.5,63C 160.877,61.759 162.21,61.5923 163.5,62.5C 159.9,70.4256 157.9,78.7589 157.5,87.5C 158.5,87.5 159.5,87.5 160.5,87.5C 161.116,77.1908 164.116,67.6908 169.5,59C 170.872,58.5983 172.205,58.0983 173.5,57.5C 173.833,57.8333 174.167,58.1667 174.5,58.5C 170.884,67.1935 169.551,76.1935 170.5,85.5C 171.086,85.2907 171.586,84.9574 172,84.5C 172.56,74.7557 175.06,65.589 179.5,57C 181.259,56.2025 182.926,56.3691 184.5,57.5C 182.985,59.5473 182.151,61.8807 182,64.5C 181.789,70.2182 181.289,75.8848 180.5,81.5C 181.689,82.4287 183.022,82.762 184.5,82.5C 184.171,75.7586 184.671,69.092 186,62.5C 187.171,58.3223 189.837,55.989 194,55.5C 202.56,56.863 210.393,60.0297 217.5,65C 227.167,71.3333 236.833,77.6667 246.5,84C 257.618,93.0075 262.284,104.674 260.5,119C 259.223,135.818 258.223,152.651 257.5,169.5 Z"></path></g>
<g><path style="opacity:1" fill="#121212" d="M 175.5,91.5 C 183.893,91.1696 192.227,91.6696 200.5,93C 209.731,96.2822 218.731,100.116 227.5,104.5C 228.429,105.689 228.762,107.022 228.5,108.5C 220.211,106.193 212.211,103.027 204.5,99C 193.716,95.1695 182.716,94.5028 171.5,97C 163.296,98.8837 155.296,101.384 147.5,104.5C 146.107,102.326 146.44,100.493 148.5,99C 157.497,96.0042 166.497,93.5042 175.5,91.5 Z"></path></g>
<g><path style="opacity:1" fill="#171717" d="M 176.5,104.5 C 186.886,103.531 196.886,105.031 206.5,109C 213.167,112 219.833,115 226.5,118C 229.226,121.63 228.226,122.963 223.5,122C 213.956,116.819 203.956,112.819 193.5,110C 185.452,109.225 177.452,109.558 169.5,111C 161.396,112.869 153.396,115.036 145.5,117.5C 145.5,115.833 145.5,114.167 145.5,112.5C 155.97,109.967 166.303,107.3 176.5,104.5 Z"></path></g>
<g><path style="opacity:1" fill="#151515" d="M 113.5,132.5 C 112.294,131.12 112.627,129.953 114.5,129C 111.833,128.333 111.833,127.667 114.5,127C 110.642,122.903 111.308,119.236 116.5,116C 115.672,115.085 114.672,114.419 113.5,114C 113.728,113.601 114.062,113.435 114.5,113.5C 122.235,109.587 130.235,106.253 138.5,103.5C 138.5,105.167 138.5,106.833 138.5,108.5C 128.987,110.339 120.821,114.672 114,121.5C 113.219,122.944 113.386,124.277 114.5,125.5C 121.724,122.593 128.891,119.593 136,116.5C 136.667,118.167 136.667,119.833 136,121.5C 129.905,124.129 123.738,126.629 117.5,129C 116.295,130.376 114.962,131.542 113.5,132.5 Z"></path></g>
<g><path style="opacity:1" fill="#141414" d="M 176.5,118.5 C 186.067,117.848 195.401,119.014 204.5,122C 211.5,125.167 218.5,128.333 225.5,131.5C 226.429,132.689 226.762,134.022 226.5,135.5C 218.229,133.204 210.229,130.038 202.5,126C 182.422,121.482 162.922,123.315 144,131.5C 143.257,129.559 143.424,127.726 144.5,126C 155.208,123.154 165.875,120.654 176.5,118.5 Z"></path></g>
<g><path style="opacity:1" fill="#121212" d="M 173.5,132.5 C 192.682,131.454 210.016,136.454 225.5,147.5C 225,148.881 224,149.547 222.5,149.5C 213.043,145.104 203.376,141.27 193.5,138C 176.126,136.202 159.293,138.369 143,144.5C 142.506,142.866 142.34,141.199 142.5,139.5C 152.878,136.761 163.212,134.428 173.5,132.5 Z"></path></g>
<g><path style="opacity:1" fill="#151515" d="M 191.5,152.5 C 187.849,151.835 184.015,151.501 180,151.5C 173.601,151.37 167.434,152.037 161.5,153.5C 155.009,154.065 148.676,155.398 142.5,157.5C 141.548,155.955 141.215,154.288 141.5,152.5C 150.514,150.774 159.514,148.941 168.5,147C 189.426,144.814 208.426,149.647 225.5,161.5C 225,162.881 224,163.547 222.5,163.5C 216.172,160.669 209.838,157.836 203.5,155C 199.622,153.53 195.622,152.697 191.5,152.5 Z"></path></g>
<g><path style="opacity:1" fill="#c3c3c3" d="M 191.5,152.5 C 181.482,152.41 171.482,152.743 161.5,153.5C 167.434,152.037 173.601,151.37 180,151.5C 184.015,151.501 187.849,151.835 191.5,152.5 Z"></path></g>
<g><path style="opacity:1" fill="#151515" d="M 164.5,160.5 C 185.11,159.222 204.444,163.555 222.5,173.5C 223.429,174.689 223.762,176.022 223.5,177.5C 214.913,174.248 206.247,171.081 197.5,168C 177.974,163.877 158.808,165.044 140,171.5C 139.506,169.866 139.34,168.199 139.5,166.5C 147.947,164.451 156.28,162.451 164.5,160.5 Z"></path></g>
<g><path style="opacity:1" fill="#afafaf" d="M 349.5,154.5 C 350.957,159.598 351.624,164.931 351.5,170.5C 350.194,165.384 349.527,160.051 349.5,154.5 Z"></path></g>
<g><path style="opacity:1" fill="#1a1a1a" d="M 257.5,169.5 C 257.539,174.184 257.872,178.851 258.5,183.5C 258.466,186.967 257.8,190.3 256.5,193.5C 258.166,197.618 257.832,201.452 255.5,205C 256.308,205.308 256.975,205.808 257.5,206.5C 256.253,216.44 255.42,226.44 255,236.5C 254.827,230.984 254.327,225.651 253.5,220.5C 254.728,203.348 256.061,186.348 257.5,169.5 Z"></path></g>
<g><path style="opacity:1" fill="#161616" d="M 159.5,175.5 C 181.299,173.472 201.965,177.306 221.5,187C 222.93,188.88 222.596,190.38 220.5,191.5C 200.673,181.307 179.673,177.807 157.5,181C 151.142,182.105 144.809,183.272 138.5,184.5C 138.5,182.833 138.5,181.167 138.5,179.5C 145.774,178.911 152.774,177.577 159.5,175.5 Z"></path></g>
<g><path style="opacity:1" fill="#7e7e7e" d="M 106.5,183.5 C 106.205,185.735 106.539,187.735 107.5,189.5C 107.44,190.043 107.107,190.376 106.5,190.5C 105.203,188.027 105.203,185.693 106.5,183.5 Z"></path></g>
<g><path style="opacity:1" fill="#151515" d="M 158.5,190.5 C 180.061,189.341 200.728,193.007 220.5,201.5C 221.429,202.689 221.762,204.022 221.5,205.5C 219.801,205.66 218.134,205.494 216.5,205C 197.048,196.466 176.715,193.466 155.5,196C 149.157,196.835 142.824,197.669 136.5,198.5C 136.5,197.167 136.5,195.833 136.5,194.5C 143.891,192.753 151.225,191.419 158.5,190.5 Z"></path></g>
<g><path style="opacity:1" fill="#191919" d="M 168.5,203.5 C 169.833,203.5 171.167,203.5 172.5,203.5C 170.718,214.43 170.218,225.43 171,236.5C 172.061,239.562 173.894,242.062 176.5,244C 182.271,246.559 187.938,249.059 193.5,251.5C 193.113,252.72 192.28,253.387 191,253.5C 182.3,251.82 174.967,247.82 169,241.5C 167.069,237.573 166.236,233.406 166.5,229C 167.374,220.512 168.04,212.012 168.5,203.5 Z"></path></g>
<g><path style="opacity:1" fill="#d7d7d7" d="M 103.5,211.5 C 103.187,215.042 103.521,218.375 104.5,221.5C 103.34,233.205 105.173,244.205 110,254.5C 106.173,251.673 103.506,248.007 102,243.5C 101.146,232.621 101.646,221.954 103.5,211.5 Z"></path></g>
<g><path style="opacity:1" fill="#181818" d="M 145.5,205.5 C 147.252,205.418 148.252,206.251 148.5,208C 146.86,218.941 147.36,229.774 150,240.5C 154.51,248.674 161.176,254.341 170,257.5C 170.601,258.965 170.101,259.965 168.5,260.5C 158.988,257.142 151.821,251.142 147,242.5C 144.336,230.227 143.836,217.894 145.5,205.5 Z"></path></g>
<g><path style="opacity:1" fill="#1d1d1d" d="M 122.5,210.5 C 123.5,210.5 124.5,210.5 125.5,210.5C 125.334,220.172 125.5,229.839 126,239.5C 128.43,247.431 133.264,253.431 140.5,257.5C 141.386,258.325 141.719,259.325 141.5,260.5C 132.766,258.518 126.933,253.185 124,244.5C 121.356,233.225 120.856,221.891 122.5,210.5 Z"></path></g>
<g><path style="opacity:1" fill="#1c1c1c" d="M 156.5,204.5 C 157.833,204.5 159.167,204.5 160.5,204.5C 159.404,215.133 159.237,225.8 160,236.5C 164.411,246.043 171.744,252.043 182,254.5C 182.601,255.965 182.101,256.965 180.5,257.5C 162.518,252.836 154.184,241.169 155.5,222.5C 155.767,216.491 156.1,210.491 156.5,204.5 Z"></path></g>
<g><path style="opacity:1" fill="#181818" d="M 114.5,212.5 C 116.104,222.839 117.271,233.506 118,244.5C 121.333,250.5 126,255.167 132,258.5C 132.483,259.448 132.649,260.448 132.5,261.5C 120.623,257.447 114.123,249.113 113,236.5C 111.974,228.33 112.474,220.33 114.5,212.5 Z"></path></g>
<g><path style="opacity:1" fill="#1b1b1b" d="M 134.5,207.5 C 136.101,218.174 137.267,229.174 138,240.5C 140.52,247.688 145.187,253.022 152,256.5C 152.483,257.448 152.649,258.448 152.5,259.5C 145.783,257.629 140.616,253.629 137,247.5C 132.243,234.336 131.409,221.003 134.5,207.5 Z"></path></g>
<g><path style="opacity:1" fill="#8f8f8f" d="M 186.5,302.5 C 187.461,304.265 187.795,306.265 187.5,308.5C 175.655,308.828 163.988,308.495 152.5,307.5C 163.833,307.5 175.167,307.5 186.5,307.5C 186.5,305.833 186.5,304.167 186.5,302.5 Z"></path></g>
<g><path style="opacity:1" fill="#fafafa" d="M 145.5,310.5 C 162.167,310.5 178.833,310.5 195.5,310.5C 195.5,313.833 195.5,317.167 195.5,320.5C 178.833,320.5 162.167,320.5 145.5,320.5C 145.5,317.167 145.5,313.833 145.5,310.5 Z"></path></g>
<g><path style="opacity:1" fill="#b1b1b1" d="M 154.5,349.5 C 160.051,349.527 165.384,350.194 170.5,351.5C 164.931,351.624 159.598,350.957 154.5,349.5 Z"></path></g>
</svg></svg></g></svg>